<svg xmlns="http://www.w3.org/2000/svg" xmlns:xlink="http://www.w3.org/1999/xlink" width="244" height="250.875" xmlns:v="https://vecta.io/nano"><path d="M194.695 110.642v-4.881a7.31 7.31 0 0 0-6.887-7.294V79.404h-1.62v19.041h-7.292v12.154H144.46v139.767h76.163V138.043c-.001-14.566-11.382-26.594-25.926-27.4z" fill="#dde0e3"/><g fill="#fff"><use xlink:href="#B"/><use xlink:href="#B" x="16.61"/><use xlink:href="#B" x="33.22"/><use xlink:href="#B" y="20.661"/><use xlink:href="#B" x="16.61" y="20.661"/><use xlink:href="#B" x="33.22" y="20.661"/><use xlink:href="#B" y="41.322"/><use xlink:href="#B" x="16.61" y="41.322"/><use xlink:href="#B" x="33.22" y="41.322"/><use xlink:href="#B" y="61.984"/><use xlink:href="#B" x="16.61" y="61.984"/><use xlink:href="#B" x="33.22" y="61.984"/><use xlink:href="#B" y="82.645"/><use xlink:href="#B" x="16.61" y="82.645"/><use xlink:href="#B" x="33.22" y="82.645"/><use xlink:href="#B" y="103.306"/><use xlink:href="#B" x="16.61" y="103.306"/><use xlink:href="#B" x="33.22" y="103.306"/></g><path d="M150.267 233.254a10.32 10.32 0 0 1-10.179-8.621v-.021l.013-.016c.66-.791 1.194-1.679 1.582-2.633a6.71 6.71 0 0 1-1.651 1.51l-.065.043v-.078l-.012-.5a10.26 10.26 0 0 1 4.867-8.762c-4.144-4.325-5.224-10.744-2.721-16.186s8.078-8.801 14.059-8.47 11.151 4.285 13.037 9.971l.013.039-.038.016a7.17 7.17 0 0 1-2.781.586 9.96 9.96 0 0 0 3.065.371h.036l.009.035a14.64 14.64 0 0 1 .435 3.545q0 .065 0 .129c-.006 1.879.788 3.672 2.184 4.931a10.32 10.32 0 0 1-.481 15.676l-.021.017-.025-.011a8.3 8.3 0 0 1-3.312-2.414 10.12 10.12 0 0 0 2.1 3.211l.039.04-.049.028c-3.137 1.828-7.003 1.873-10.183.121a10.36 10.36 0 0 1-9.914 7.448z" fill="#00d48e"/><g fill="#3f3d56"><path d="M146.59 249.69c-.093 0-.172-.069-.185-.161a62.77 62.77 0 0 1-.087-13.161c.647-6.907 2.725-16.855 8.951-25.025.063-.083.181-.099.263-.036s.099.181.037.263c-6.172 8.1-8.233 17.974-8.876 24.832a62.35 62.35 0 0 0 .085 13.074c.008.054-.009.108-.044.149s-.087.065-.142.065z"/><path d="M149.702 222.147c-.081-.001-.152-.053-.177-.13s.002-.161.067-.209c1.773-1.199 3.687-2.173 5.7-2.9 4.101-1.617 8.621-1.838 12.861-.629.099.031.153.137.121.235s-.137.153-.235.122c-4.16-1.183-8.595-.964-12.618.624-1.982.715-3.868 1.674-5.613 2.855-.031.021-.068.032-.106.032z"/></g><circle cx="55.277" cy="32.79" r="18.231" fill="#df3d24"/><path d="M53.83 42.335H51.5V27.977a7.32 7.32 0 0 0-7.316-7.316h-10.1V0h-1.621v20.661H18.685v21.674H5.113v207.829h76.163V69.78c0-7.279-2.892-14.26-8.039-19.407s-12.128-8.038-19.407-8.038z" fill="#dde0e3"/><path d="M123.597 168.937h-2.011v-2.812a7.31 7.31 0 0 0-6.887-7.295v-19.062h-1.624v19.041h-7.292v10.128H79.858v81.43h57.528v-67.642c-.001-7.615-6.173-13.787-13.788-13.788z" fill="#c6c9cb"/><g fill="#fff"><use xlink:href="#C"/><use xlink:href="#C" y="14.989"/><use xlink:href="#C" y="29.979"/><use xlink:href="#C" y="44.969"/><use xlink:href="#C" y="59.958"/><use xlink:href="#C" y="74.948"/><use xlink:href="#C" y="89.937"/><use xlink:href="#C" y="104.927"/><use xlink:href="#C" y="119.916"/><use xlink:href="#C" y="134.906"/><use xlink:href="#C" y="149.896"/><use xlink:href="#C" y="164.885"/><path d="M86.948 179.875h10.128v8.102H86.948z"/><use xlink:href="#B" x="-53.461" y="49.425"/><use xlink:href="#B" x="-36.851" y="49.425"/><path d="M87.151 200.536h10.128v8.102H87.151z"/><use xlink:href="#B" x="-53.258" y="70.086"/><use xlink:href="#B" x="-36.648" y="70.086"/><path d="M87.353 221.197h10.128v8.102H87.353z"/><use xlink:href="#B" x="-53.056" y="90.747"/><use xlink:href="#B" x="-36.446" y="90.747"/><path d="M30.028 25.118h10.128v8.102H30.028z"/></g><path d="M7.895 230.191c.805-6.473 4.817-12.851 10.99-14.958-2.435 6.663-2.435 13.972 0 20.635.949 2.566 2.271 5.321 1.379 7.908a6.72 6.72 0 0 1-3.432 3.61c-1.552.706-3.187 1.21-4.867 1.5l-.327.271c-2.641-5.969-4.548-12.493-3.743-18.966z" fill="#cacaca"/><g fill="#fff"><path d="M18.947 215.355a25.69 25.69 0 0 0-6.386 14.458c-.14 1.154-.098 2.323.126 3.464.254 1.104.799 2.12 1.578 2.943a13.13 13.13 0 0 1 2.038 2.439c.513.982.582 2.136.19 3.172a10.1 10.1 0 0 1-2.237 3.336 9.91 9.91 0 0 0-2.484 3.709c-.052.178-.324.087-.273-.09.74-2.554 3.219-4 4.4-6.3.617-1.048.716-2.322.266-3.452a10.19 10.19 0 0 0-2.022-2.516 6.77 6.77 0 0 1-1.65-2.82 10.23 10.23 0 0 1-.259-3.446c.206-2.604.82-5.16 1.82-7.574 1.126-2.761 2.715-5.309 4.7-7.534.123-.138.312.079.19.216z"/><path d="M12.638 228.073c-1.835-.445-3.077-2.154-2.934-4.037.009-.075.074-.131.15-.127s.136.065.137.141a3.57 3.57 0 0 0 2.737 3.75c.178.042.089.315-.09.273zm1.213 7.797a7.43 7.43 0 0 0 3.317-4.278c.052-.178.325-.087.273.09-.553 1.864-1.789 3.452-3.461 4.445-.159.095-.288-.163-.129-.257z"/><use xlink:href="#D"/></g><path d="M37.703 226.797l-.291.192a28.74 28.74 0 0 0-3.674 2.868l-.267.245a30.29 30.29 0 0 0-6.578 9c-.642 1.347-1.181 2.74-1.611 4.169-.595 1.973-1.082 4.159-2.259 5.773a5.05 5.05 0 0 1-.393.485H11.995l-.073-.034-.425.019.053-.228.032-.131s.015-.058.019-.085c0-.01 0-.019.007-.027 0-.027.012-.051.017-.075q.16-.651.33-1.3a43.25 43.25 0 0 1 3.64-9.555l.15-.272a28.06 28.06 0 0 1 2.521-3.824c.518-.657 1.07-1.288 1.652-1.89 1.508-1.552 3.25-2.857 5.163-3.868 3.74-2.111 8.159-2.67 12.307-1.555a3.27 3.27 0 0 1 .315.093z" fill="#cacaca"/><g fill="#fff"><path d="M37.683 226.93a25.69 25.69 0 0 0-13.8 7.7c-.807.837-1.477 1.796-1.985 2.841-.462 1.035-.639 2.174-.512 3.3a13.13 13.13 0 0 1 .159 3.175c-.182 1.093-.821 2.056-1.758 2.647a10.1 10.1 0 0 1-3.804 1.32 9.91 9.91 0 0 0-4.217 1.466c-.148.111-.312-.126-.164-.236 2.129-1.593 4.981-1.259 7.31-2.384 1.125-.466 1.971-1.426 2.291-2.6a10.19 10.19 0 0 0-.1-3.226 6.77 6.77 0 0 1 .38-3.245 10.23 10.23 0 0 1 1.868-2.907c1.733-1.955 3.762-3.626 6.013-4.951 2.561-1.527 5.365-2.604 8.289-3.185.181-.036.2.251.022.287z"/><path d="M24.985 233.286c-1.197-1.46-1.16-3.573.088-4.99.123-.138.344.046.221.184a3.57 3.57 0 0 0-.073 4.642c.118.142-.119.305-.236.164zm-3.726 6.957a7.43 7.43 0 0 0 5.225-1.419c.149-.11.312.126.164.236-1.564 1.156-3.507 1.679-5.44 1.465-.184-.021-.132-.3.051-.283zm10.719-11.564a2.18 2.18 0 0 0 1.714 1.161c.184.018.132.3-.051.283-.806-.085-1.518-.565-1.9-1.28-.042-.066-.027-.153.036-.2.031-.022.07-.031.108-.024s.071.028.093.06z"/></g><path d="M201.139 230.191c.8-6.473 4.817-12.851 10.99-14.958-2.435 6.663-2.435 13.972 0 20.635.949 2.566 2.271 5.321 1.379 7.908a6.72 6.72 0 0 1-3.432 3.61c-1.552.706-3.187 1.21-4.867 1.5l-.328.271c-2.64-5.969-4.547-12.493-3.742-18.966z" fill="#cacaca"/><g fill="#fff"><path d="M212.19 215.355a25.69 25.69 0 0 0-6.386 14.458 11.06 11.06 0 0 0 .126 3.464c.254 1.104.799 2.12 1.578 2.943a13.13 13.13 0 0 1 2.038 2.439c.513.982.582 2.136.19 3.172a10.1 10.1 0 0 1-2.237 3.336 9.91 9.91 0 0 0-2.484 3.709c-.052.178-.325.087-.273-.09.74-2.554 3.219-4 4.4-6.3.617-1.048.716-2.322.266-3.452a10.19 10.19 0 0 0-2.022-2.516 6.77 6.77 0 0 1-1.65-2.82c-.281-1.126-.369-2.291-.259-3.446a24.92 24.92 0 0 1 1.82-7.574c1.126-2.761 2.715-5.309 4.7-7.534.123-.138.312.079.19.216z"/><path d="M205.881 228.073c-1.835-.445-3.077-2.154-2.934-4.037.009-.075.074-.131.15-.127s.136.065.137.141a3.57 3.57 0 0 0 2.737 3.75c.18.043.089.316-.09.273zm1.214 7.797a7.43 7.43 0 0 0 3.317-4.278c.052-.178.325-.087.273.09-.553 1.864-1.789 3.452-3.461 4.445-.159.094-.288-.163-.129-.257z"/><use xlink:href="#D" x="193.244"/></g><path d="M230.947 226.797l-.291.192c-1.3.855-2.529 1.814-3.674 2.868l-.267.245a30.29 30.29 0 0 0-6.578 9 29.41 29.41 0 0 0-1.611 4.169c-.595 1.973-1.082 4.159-2.259 5.773a5.04 5.04 0 0 1-.393.485h-10.635l-.073-.034-.425.019.053-.228.032-.131s.015-.058.019-.085c0-.01 0-.019.007-.027 0-.027.012-.051.017-.075q.16-.651.33-1.3c.831-3.318 2.053-6.525 3.64-9.555l.15-.272a28.07 28.07 0 0 1 2.521-3.824 24.84 24.84 0 0 1 1.652-1.89c1.508-1.552 3.25-2.857 5.163-3.868 3.74-2.111 8.159-2.67 12.307-1.555a3.27 3.27 0 0 1 .315.093z" fill="#cacaca"/><g fill="#fff"><path d="M230.927 226.93a25.69 25.69 0 0 0-13.8 7.7c-.807.837-1.477 1.796-1.985 2.841-.462 1.035-.639 2.174-.512 3.3a13.13 13.13 0 0 1 .159 3.175c-.182 1.093-.821 2.056-1.758 2.647a10.1 10.1 0 0 1-3.804 1.32 9.91 9.91 0 0 0-4.217 1.466c-.148.111-.312-.126-.164-.236 2.129-1.593 4.981-1.259 7.31-2.384 1.125-.466 1.971-1.426 2.291-2.6a10.19 10.19 0 0 0-.1-3.226 6.77 6.77 0 0 1 .38-3.245 10.23 10.23 0 0 1 1.868-2.907 24.92 24.92 0 0 1 6.013-4.951c2.561-1.527 5.365-2.604 8.289-3.185.181-.036.2.251.022.287z"/><path d="M218.229 233.286c-1.197-1.46-1.16-3.573.088-4.99.123-.138.344.046.221.184a3.57 3.57 0 0 0-.073 4.642c.118.143-.119.306-.236.164zm-3.726 6.957a7.43 7.43 0 0 0 5.224-1.419c.149-.11.312.126.164.236-1.564 1.156-3.507 1.679-5.44 1.465-.184-.02-.131-.303.052-.282zm10.719-11.564a2.18 2.18 0 0 0 1.714 1.161c.184.018.132.3-.051.283-.806-.085-1.518-.565-1.9-1.28-.042-.066-.027-.153.036-.2s.154-.029.2.036z"/></g><g fill="#f0f0f0"><use xlink:href="#E"/><use xlink:href="#E" x="115.46" y="-16.61"/><use xlink:href="#E" x="51.045" y="51.046"/></g><path d="M177.315 191.845c.044-.028.071-.075.073-.127l-.063.056c-.002.024-.005.048-.01.071z" fill="#2f2e41"/><path d="M241.308 250.577H.443c-.158 0-.305-.084-.384-.221s-.079-.306 0-.443.225-.222.384-.221h240.865c.245 0 .443.198.443.443s-.198.443-.443.443z" fill="#cacaca"/><g fill="#fff"><path d="M140.775 136.985l-1.806.925c-.035.013-.073-.003-.09-.035s-.006-.073.024-.094l1.806-.925c.036-.018.079-.004.097.032s.004.079-.032.097z"/><circle cx="141.025" cy="136.775" r=".058"/></g><g fill="#3f3d56"><path d="M146.986 140.318c-.064.033-.143.007-.176-.057l-1.163-2.271a.13.13 0 0 1 .122-.19.13.13 0 0 1 .11.071l1.163 2.271c.033.064.007.143-.057.176z"/><use xlink:href="#F"/><use xlink:href="#F" x="0.489" y="0.955"/></g><circle cx="207.718" cy="214.593" r="36.282" fill="#ff7829"/><path d="M225.071 209.86h-12.62v-12.62c0-2.614-2.119-4.732-4.732-4.732s-4.732 2.119-4.732 4.732v12.62h-12.62c-2.587.038-4.664 2.145-4.664 4.732s2.077 4.695 4.664 4.733h12.62v12.62c0 2.614 2.119 4.732 4.733 4.732s4.732-2.119 4.732-4.732v-12.62h12.62c2.587-.038 4.664-2.145 4.664-4.733s-2.077-4.695-4.664-4.733z" fill="#fff"/><defs ><path id="B" d="M157.019 130.45h10.128v8.102h-10.128z"/><path id="C" d="M26.787 58.743h32.815v2.431H26.787z"/><path id="D" d="M15.447 220.185a2.18 2.18 0 0 0 2.067-.1c.158-.1.286.161.129.257-.695.417-1.552.462-2.287.121-.073-.027-.113-.107-.091-.182s.107-.116.182-.091z"/><path id="E" d="M83.988 30.389a4.92 4.92 0 0 0-2.808-1.2c-2.506.06-3.858 3.735-6.362 3.605-1.6-.082-2.657-1.7-4.144-2.293-.985-.325-2.064-.202-2.951.337s-1.493 1.439-1.659 2.463l.249-.228a60.02 60.02 0 0 0 22.993 1.062z"/><path id="F" d="M137.534 143.043c-.064.033-.143.007-.176-.057l-.264-.516a.13.13 0 0 1 .122-.19.13.13 0 0 1 .11.071l.264.516c.033.064.008.143-.056.176z"/></defs></svg>